<?xml version="1.0" encoding="utf-8"?>
<!-- Generator: Adobe Illustrator 16.0.0, SVG Export Plug-In . SVG Version: 6.00 Build 0)  -->
<!DOCTYPE svg PUBLIC "-//W3C//DTD SVG 1.1//EN" "http://www.w3.org/Graphics/SVG/1.1/DTD/svg11.dtd">
<svg version="1.1" id="Layer_1" xmlns="http://www.w3.org/2000/svg" xmlns:xlink="http://www.w3.org/1999/xlink" x="0px" y="0px"
	 width="387px" height="135px" viewBox="0 0 387 135" enable-background="new 0 0 387 135" xml:space="preserve">
<polygon fill="#F92672" stroke="#FD971F" stroke-width="2" stroke-miterlimit="10" points="38.83,101.717 66.833,101.682 
	50.485,112.79 71.481,132.782 117.162,101.526 117.119,68.615 4.493,68.759 "/>
<polygon fill="#F92672" stroke="#FD971F" stroke-width="2" stroke-miterlimit="10" points="81.354,33.766 53.343,33.802 
	69.695,22.693 48.693,2.701 2.999,33.957 3.042,66.868 115.702,66.725 "/>
<g>
	<path d="M138.756,83.35h-7.4v-4.945c0-1.438-0.079-2.336-0.237-2.693c-0.158-0.355-0.507-0.535-1.046-0.535
		c-0.609,0-0.996,0.217-1.16,0.65s-0.246,1.371-0.246,2.813v13.219c0,1.383,0.082,2.285,0.246,2.707s0.533,0.633,1.107,0.633
		c0.551,0,0.911-0.211,1.081-0.633c0.17-0.424,0.255-1.416,0.255-2.979v-3.578h7.4v1.109c0,2.945-0.208,5.035-0.624,6.268
		s-1.336,2.313-2.76,3.238c-1.424,0.928-3.179,1.391-5.265,1.391c-2.168,0-3.955-0.393-5.361-1.178s-2.338-1.871-2.795-3.26
		s-0.686-3.479-0.686-6.268v-8.314c0-2.051,0.07-3.588,0.211-4.613s0.56-2.014,1.257-2.963s1.664-1.695,2.9-2.24
		s2.657-0.818,4.263-0.818c2.18,0,3.979,0.422,5.396,1.265s2.35,1.894,2.795,3.151s0.668,3.215,0.668,5.871V83.35z"/>
	<path d="M158.32,87.621c0,2.859-0.067,4.885-0.202,6.074s-0.557,2.275-1.266,3.26s-1.667,1.74-2.874,2.268
		s-2.613,0.791-4.219,0.791c-1.523,0-2.892-0.248-4.104-0.746s-2.188-1.246-2.927-2.242s-1.178-2.08-1.318-3.252
		s-0.211-3.223-0.211-6.152v-4.869c0-2.859,0.067-4.883,0.202-6.072s0.557-2.277,1.266-3.262s1.667-1.74,2.874-2.268
		s2.613-0.791,4.219-0.791c1.523,0,2.892,0.25,4.104,0.748s2.188,1.244,2.927,2.24s1.178,2.08,1.318,3.252s0.211,3.223,0.211,6.152
		V87.621z M150.92,78.27c0-1.324-0.073-2.17-0.22-2.539s-0.448-0.555-0.905-0.555c-0.387,0-0.683,0.15-0.888,0.449
		s-0.308,1.18-0.308,2.645v13.289c0,1.652,0.067,2.672,0.202,3.059s0.448,0.58,0.94,0.58c0.504,0,0.826-0.223,0.967-0.668
		s0.211-1.506,0.211-3.182V78.27z"/>
	<path d="M161.08,70.957h5.537c3.574,0,5.991,0.164,7.251,0.492s2.218,0.867,2.874,1.617s1.066,1.586,1.23,2.506
		s0.246,2.727,0.246,5.422v9.967c0,2.555-0.12,4.264-0.36,5.125s-0.659,1.535-1.257,2.021s-1.336,0.826-2.215,1.02
		s-2.203,0.289-3.973,0.289h-9.334V70.957z M168.48,75.826v18.721c1.066,0,1.723-0.213,1.969-0.641s0.369-1.592,0.369-3.49V79.359
		c0-1.289-0.041-2.115-0.123-2.479s-0.27-0.629-0.563-0.799S169.289,75.826,168.48,75.826z"/>
	<path d="M180.979,70.957h12.34v5.695h-4.939v5.396h4.623v5.414h-4.623v6.258h5.432v5.695h-12.832V70.957z"/>
	<path d="M219.299,70.957v28.459h-7.4V87.463h-2.215v11.953h-7.4V70.957h7.4v10.178h2.215V70.957H219.299z"/>
	<path d="M229.67,70.957v28.459h-7.4V70.957H229.67z"/>
	<path d="M249.621,81.434h-7.4V78.85c0-1.629-0.07-2.648-0.211-3.059s-0.475-0.615-1.002-0.615c-0.457,0-0.768,0.176-0.932,0.527
		s-0.246,1.254-0.246,2.707v13.658c0,1.277,0.082,2.119,0.246,2.523s0.492,0.605,0.984,0.605c0.539,0,0.905-0.229,1.099-0.686
		s0.29-1.348,0.29-2.672v-3.375h-1.494v-4.324h8.666v15.275h-4.65l-0.685-2.039c-0.504,0.879-1.141,1.539-1.908,1.979
		c-0.769,0.439-1.675,0.658-2.718,0.658c-1.244,0-2.408-0.301-3.492-0.904c-1.085-0.604-1.909-1.352-2.472-2.242
		c-0.563-0.891-0.915-1.824-1.056-2.803s-0.211-2.447-0.211-4.404v-8.455c0-2.719,0.146-4.693,0.439-5.924s1.134-2.357,2.522-3.383
		s3.185-1.539,5.388-1.539c2.168,0,3.967,0.445,5.396,1.336s2.361,1.949,2.795,3.174s0.65,3.002,0.65,5.334V81.434z"/>
	<path d="M269.502,70.957v28.459h-7.4V87.463h-2.215v11.953h-7.4V70.957h7.4v10.178h2.215V70.957H269.502z"/>
	<path d="M279.873,70.957v22.764h4.5v5.695h-11.9V70.957H279.873z"/>
	<path d="M293.566,70.957v28.459h-7.4V70.957H293.566z"/>
	<path d="M313.518,81.434h-7.4V78.85c0-1.629-0.07-2.648-0.211-3.059s-0.475-0.615-1.002-0.615c-0.457,0-0.768,0.176-0.932,0.527
		s-0.246,1.254-0.246,2.707v13.658c0,1.277,0.082,2.119,0.246,2.523s0.492,0.605,0.984,0.605c0.539,0,0.905-0.229,1.099-0.686
		s0.29-1.348,0.29-2.672v-3.375h-1.494v-4.324h8.666v15.275h-4.65l-0.685-2.039c-0.504,0.879-1.141,1.539-1.908,1.979
		c-0.769,0.439-1.675,0.658-2.718,0.658c-1.244,0-2.408-0.301-3.492-0.904c-1.085-0.604-1.909-1.352-2.472-2.242
		c-0.563-0.891-0.915-1.824-1.056-2.803s-0.211-2.447-0.211-4.404v-8.455c0-2.719,0.146-4.693,0.439-5.924s1.134-2.357,2.522-3.383
		s3.185-1.539,5.388-1.539c2.168,0,3.967,0.445,5.396,1.336s2.361,1.949,2.795,3.174s0.65,3.002,0.65,5.334V81.434z"/>
	<path d="M333.398,70.957v28.459h-7.4V87.463h-2.215v11.953h-7.4V70.957h7.4v10.178h2.215V70.957H333.398z"/>
	<path d="M351.275,70.957v5.695h-4.395v22.764h-7.4V76.652h-4.377v-5.695H351.275z"/>
	<path d="M352.963,70.957h12.34v5.695h-4.939v5.396h4.623v5.414h-4.623v6.258h5.432v5.695h-12.832V70.957z"/>
	<path d="M367.922,70.957h5.238c3.492,0,5.856,0.135,7.093,0.404s2.244,0.959,3.023,2.066s1.169,2.873,1.169,5.299
		c0,2.215-0.275,3.703-0.826,4.465s-1.635,1.219-3.252,1.371c1.465,0.363,2.449,0.85,2.953,1.459s0.817,1.17,0.94,1.68
		s0.185,1.912,0.185,4.209v7.506h-6.873v-9.457c0-1.523-0.12-2.467-0.36-2.83s-0.87-0.545-1.89-0.545v12.832h-7.4V70.957z
		 M375.322,75.826v6.328c0.832,0,1.415-0.113,1.749-0.342s0.501-0.971,0.501-2.225v-1.564c0-0.902-0.161-1.494-0.483-1.775
		S376.178,75.826,375.322,75.826z"/>
</g>
</svg>
